<svg width="180" height="56" viewBox="0 0 180 56" fill="none" xmlns="http://www.w3.org/2000/svg">
<path d="M80.005 16.64L72.34 40.16V40.125C72.2 40.475 72.0017 40.7667 71.745 41C71.5117 41.21 71.22 41.315 70.87 41.315C70.6833 41.315 70.4967 41.2917 70.31 41.245C70.1467 41.2217 69.9717 41.1867 69.785 41.14H69.82C68.49 40.72 68 39.9733 68.35 38.9L76.33 14.645C76.4467 14.2717 76.645 13.9567 76.925 13.7C77.2283 13.4433 77.5783 13.2917 77.975 13.245C78.3717 13.175 78.7567 13.1283 79.13 13.105C79.5033 13.0583 79.795 13.035 80.005 13.035C80.215 13.035 80.5067 13.0583 80.88 13.105C81.2533 13.1283 81.6383 13.1633 82.035 13.21C82.3617 13.2567 82.6767 13.4317 82.98 13.735C83.3067 14.0383 83.5517 14.3417 83.715 14.645C85.0217 18.6583 86.34 22.7067 87.67 26.79C89.0233 30.85 90.3533 34.8867 91.66 38.9C91.9867 39.9733 91.4967 40.72 90.19 41.14C90.0033 41.1867 89.8283 41.2217 89.665 41.245C89.525 41.2917 89.3617 41.315 89.175 41.315C88.8483 41.315 88.545 41.21 88.265 41C88.0083 40.7667 87.8217 40.475 87.705 40.125V40.16L80.005 16.64ZM82.63 32.6C82.63 33.3467 82.3617 33.9883 81.825 34.525C81.3117 35.0383 80.6817 35.295 79.935 35.295C79.1883 35.295 78.5583 35.0383 78.045 34.525C77.5317 33.9883 77.275 33.3467 77.275 32.6C77.275 31.8533 77.5317 31.2233 78.045 30.71C78.5583 30.1733 79.1883 29.905 79.935 29.905C80.6817 29.905 81.3117 30.1733 81.825 30.71C82.3617 31.2233 82.63 31.8533 82.63 32.6ZM100.114 38.55C99.5075 38.55 98.8775 38.445 98.2241 38.235C97.5941 38.025 96.9758 37.7217 96.3691 37.325C95.1091 36.5083 94.4791 35.1317 94.4791 33.195V25.285C94.4791 24.305 94.6425 23.465 94.9691 22.765C95.3191 22.065 95.7858 21.5167 96.3691 21.12C96.9758 20.7467 97.5941 20.455 98.2241 20.245C98.8541 20.035 99.4725 19.93 100.079 19.93H105.959C106.542 19.93 107.149 20.0583 107.779 20.315C108.409 20.5717 108.992 20.8983 109.529 21.295C110.066 21.7383 110.497 22.3217 110.824 23.045C111.151 23.7683 111.314 24.585 111.314 25.495V40.335C111.314 41.315 111.151 42.1433 110.824 42.82C110.521 43.52 110.089 44.1033 109.529 44.57C108.992 45.0133 108.409 45.3517 107.779 45.585C107.172 45.8417 106.566 45.97 105.959 45.97H100.079C98.8425 45.97 97.5941 45.6083 96.3341 44.885C95.6808 44.5117 95.2025 44.0333 94.8991 43.45C94.6191 42.8667 94.4791 42.19 94.4791 41.42V41C94.4791 40.5333 94.6308 40.16 94.9341 39.88C95.2375 39.6 95.7158 39.46 96.3691 39.46C97.6758 39.6 98.3291 40.1133 98.3291 41V41.385C98.3291 41.6417 98.5041 41.9217 98.8541 42.225C99.2275 42.5283 99.8458 42.68 100.709 42.68H105.084C105.947 42.68 106.554 42.435 106.904 41.945C107.277 41.455 107.464 40.9067 107.464 40.3V25.53C107.464 24.9467 107.277 24.4217 106.904 23.955C106.554 23.465 105.947 23.22 105.084 23.22H100.709C99.8458 23.22 99.2275 23.465 98.8541 23.955C98.5041 24.4217 98.3291 24.9467 98.3291 25.53V32.915C98.3291 33.4983 98.5041 34.0467 98.8541 34.56C99.2275 35.05 99.8458 35.295 100.709 35.295H104.349C105.189 35.295 105.609 35.8317 105.609 36.905C105.609 37.395 105.504 37.7917 105.294 38.095C105.107 38.3983 104.792 38.55 104.349 38.55H100.114ZM119.967 39.53C119.967 40.65 119.326 41.21 118.042 41.21C116.736 41.21 116.082 40.65 116.082 39.53V21.47C116.082 20.35 116.736 19.79 118.042 19.79C119.326 19.79 119.967 20.35 119.967 21.47V39.53ZM120.702 15.38C120.702 16.1267 120.446 16.7567 119.932 17.27C119.419 17.7833 118.789 18.04 118.042 18.04C117.296 18.04 116.654 17.7833 116.117 17.27C115.604 16.7567 115.347 16.1267 115.347 15.38C115.347 14.61 115.604 13.9683 116.117 13.455C116.654 12.9417 117.296 12.685 118.042 12.685C118.789 12.685 119.419 12.9417 119.932 13.455C120.446 13.9683 120.702 14.61 120.702 15.38ZM128.821 39.635C128.821 40.7317 128.179 41.28 126.896 41.28C125.589 41.28 124.936 40.7317 124.936 39.635V14.54C124.936 13.4433 125.589 12.895 126.896 12.895C128.179 12.895 128.821 13.4433 128.821 14.54V39.635ZM137.499 35.4C137.499 35.96 137.674 36.485 138.024 36.975C138.397 37.465 139.016 37.71 139.879 37.71H144.254C145.117 37.71 145.724 37.5 146.074 37.08C146.447 36.6367 146.634 36.135 146.634 35.575V35.19C146.634 34.0933 147.276 33.545 148.559 33.545C149.842 33.545 150.484 34.0933 150.484 35.19V35.61C150.484 36.59 150.321 37.395 149.994 38.025C149.691 38.655 149.224 39.2033 148.594 39.67C147.357 40.5567 146.121 41 144.884 41H139.004C137.767 41 136.566 40.5567 135.399 39.67C134.839 39.2033 134.407 38.62 134.104 37.92C133.801 37.1967 133.649 36.3683 133.649 35.435V25.46C133.649 23.57 134.232 22.17 135.399 21.26C135.982 20.84 136.577 20.5133 137.184 20.28C137.814 20.0233 138.421 19.895 139.004 19.895H144.884C145.444 19.895 146.062 20.0117 146.739 20.245C147.416 20.455 148.046 20.7467 148.629 21.12C149.189 21.5167 149.632 22.065 149.959 22.765C150.309 23.465 150.484 24.2933 150.484 25.25V29.975C150.484 30.5117 150.321 30.99 149.994 31.41C149.691 31.83 149.119 32.04 148.279 32.04H140.719C139.879 32.04 139.436 31.4917 139.389 30.395C139.389 29.2983 139.832 28.75 140.719 28.75H146.669L146.634 25.495C146.634 24.9117 146.447 24.3867 146.074 23.92C145.724 23.43 145.117 23.185 144.254 23.185H139.879C139.016 23.185 138.397 23.43 138.024 23.92C137.674 24.3867 137.499 24.9117 137.499 25.495V35.4ZM158.933 39.635C158.933 40.7317 158.291 41.28 157.008 41.28C155.701 41.28 155.048 40.7317 155.048 39.635V14.54C155.048 13.4433 155.701 12.895 157.008 12.895C158.291 12.895 158.933 13.4433 158.933 14.54V39.635ZM164.881 45.9C164.065 45.9 163.633 45.3517 163.586 44.255C163.586 43.1583 164.018 42.61 164.881 42.61H166.421C167.238 42.61 167.775 42.365 168.031 41.875L168.521 40.58L168.696 40.02L161.871 22.135V22.17C161.685 21.61 161.72 21.1317 161.976 20.735C162.256 20.3383 162.676 20.0467 163.236 19.86C163.656 19.7433 163.995 19.685 164.251 19.685C164.928 19.685 165.348 20.0817 165.511 20.875L168.276 27.77L170.621 33.51L174.366 20.945C174.576 20.105 175.066 19.685 175.836 19.685C176.023 19.685 176.326 19.7433 176.746 19.86C177.306 20.0233 177.703 20.2917 177.936 20.665C178.193 21.0383 178.251 21.4817 178.111 21.995C177.061 25.565 175.988 29.1583 174.891 32.775C173.818 36.3917 172.756 39.9733 171.706 43.52C171.59 43.7767 171.403 44.0333 171.146 44.29C170.913 44.57 170.598 44.8267 170.201 45.06C169.805 45.3167 169.315 45.515 168.731 45.655C168.148 45.8183 167.471 45.9 166.701 45.9H164.881Z" fill="#FAFAFF"/>
<path d="M27.9587 26L42 51L20 41.2057L27.9587 26Z" fill="url(#paint0_linear_1621_473)"/>
<rect x="18.0405" y="7.8988" width="16.7182" height="51.9434" rx="8.35908" transform="rotate(-26.5 18.0405 7.8988)" fill="url(#paint1_linear_1621_473)"/>
<rect x="25.708" width="16.1367" height="53.8772" rx="8.06834" transform="rotate(28.5 25.708 0)" fill="url(#paint2_linear_1621_473)"/>
<defs>
<linearGradient id="paint0_linear_1621_473" x1="30.6359" y1="26.3168" x2="25.857" y2="41.1042" gradientUnits="userSpaceOnUse">
<stop stop-color="#C795EA"/>
<stop offset="0.494792" stop-color="#CC89E6"/>
<stop offset="1" stop-color="#D187E4"/>
</linearGradient>
<linearGradient id="paint1_linear_1621_473" x1="26.4406" y1="16.2913" x2="7.80989" y2="46.6915" gradientUnits="userSpaceOnUse">
<stop stop-color="#F5F58B"/>
<stop offset="0.638352" stop-color="#FDC88E"/>
<stop offset="1" stop-color="#E583CD"/>
</linearGradient>
<linearGradient id="paint2_linear_1621_473" x1="33.7763" y1="-5.33031e-07" x2="15.8777" y2="20.2624" gradientUnits="userSpaceOnUse">
<stop stop-color="#EDFB96"/>
<stop offset="0.494792" stop-color="#B5E0F1"/>
<stop offset="1" stop-color="#B4ABF2"/>
</linearGradient>
</defs>
</svg>
