<svg width="191" height="56" viewBox="0 0 191 56" fill="none" xmlns="http://www.w3.org/2000/svg">
<path d="M92.2189 26.5938L88.7345 16.4531L85.0314 26.5938H92.2189ZM87.1095 13.0469H90.6251L98.9532 36H95.547L93.2189 29.125H84.1407L81.6564 36H78.4689L87.1095 13.0469ZM107.313 18.9688C108.625 18.9688 109.771 19.2917 110.75 19.9375C111.281 20.3021 111.823 20.8333 112.375 21.5312V19.4219H114.969V34.6406C114.969 36.7656 114.656 38.4427 114.031 39.6719C112.865 41.9427 110.662 43.0781 107.422 43.0781C105.62 43.0781 104.104 42.6719 102.875 41.8594C101.646 41.0573 100.958 39.7969 100.813 38.0781H103.672C103.807 38.8281 104.078 39.4062 104.484 39.8125C105.12 40.4375 106.12 40.75 107.484 40.75C109.641 40.75 111.052 39.9896 111.719 38.4688C112.115 37.5729 112.297 35.974 112.266 33.6719C111.703 34.526 111.026 35.1615 110.234 35.5781C109.443 35.9948 108.396 36.2031 107.094 36.2031C105.281 36.2031 103.693 35.5625 102.328 34.2812C100.974 32.9896 100.297 30.8594 100.297 27.8906C100.297 25.0885 100.979 22.901 102.344 21.3281C103.719 19.7552 105.375 18.9688 107.313 18.9688ZM112.375 27.5625C112.375 25.4896 111.948 23.9531 111.094 22.9531C110.24 21.9531 109.151 21.4531 107.828 21.4531C105.849 21.4531 104.495 22.3802 103.766 24.2344C103.38 25.224 103.188 26.5208 103.188 28.125C103.188 30.0104 103.568 31.4479 104.328 32.4375C105.099 33.4167 106.13 33.9062 107.422 33.9062C109.443 33.9062 110.865 32.9948 111.688 31.1719C112.146 30.1406 112.375 28.9375 112.375 27.5625ZM119.219 19.3438H122.078V36H119.219V19.3438ZM119.219 13.0469H122.078V16.2344H119.219V13.0469ZM126.422 13.0469H129.234V36H126.422V13.0469ZM140.438 18.8906C141.625 18.8906 142.776 19.1719 143.891 19.7344C145.005 20.2865 145.854 21.0052 146.438 21.8906C147 22.7344 147.375 23.7188 147.563 24.8438C147.729 25.6146 147.813 26.8438 147.813 28.5312H135.547C135.599 30.2292 136 31.5938 136.75 32.625C137.5 33.6458 138.662 34.1562 140.234 34.1562C141.703 34.1562 142.875 33.6719 143.75 32.7031C144.25 32.1406 144.604 31.4896 144.813 30.75H147.578C147.505 31.3646 147.261 32.0521 146.844 32.8125C146.438 33.5625 145.979 34.1771 145.469 34.6562C144.615 35.4896 143.557 36.0521 142.297 36.3438C141.62 36.5104 140.854 36.5938 140 36.5938C137.917 36.5938 136.151 35.8385 134.703 34.3281C133.255 32.8073 132.531 30.6823 132.531 27.9531C132.531 25.2656 133.261 23.0833 134.719 21.4062C136.177 19.7292 138.083 18.8906 140.438 18.8906ZM144.922 26.2969C144.807 25.0781 144.542 24.1042 144.125 23.375C143.354 22.0208 142.068 21.3438 140.266 21.3438C138.974 21.3438 137.891 21.8125 137.016 22.75C136.141 23.6771 135.677 24.8594 135.625 26.2969H144.922ZM151.359 13.0469H154.172V36H151.359V13.0469ZM168.859 19.2656H171.969C171.573 20.3385 170.693 22.7865 169.328 26.6094C168.307 29.4844 167.453 31.8281 166.766 33.6406C165.141 37.9115 163.995 40.5156 163.328 41.4531C162.662 42.3906 161.516 42.8594 159.891 42.8594C159.495 42.8594 159.188 42.8438 158.969 42.8125C158.761 42.7812 158.5 42.724 158.188 42.6406V40.0781C158.677 40.2135 159.031 40.2969 159.25 40.3281C159.469 40.3594 159.662 40.375 159.828 40.375C160.349 40.375 160.729 40.2865 160.969 40.1094C161.219 39.9427 161.427 39.7344 161.594 39.4844C161.646 39.401 161.833 38.974 162.156 38.2031C162.479 37.4323 162.714 36.8594 162.859 36.4844L156.672 19.2656H159.859L164.344 32.8906L168.859 19.2656Z" fill="#FAFAFF"/>
<path d="M27.9587 26L42 51L20 41.2057L27.9587 26Z" fill="url(#paint0_linear_1330_365)"/>
<rect x="18.0406" y="7.8988" width="16.7182" height="51.9434" rx="8.35908" transform="rotate(-26.5 18.0406 7.8988)" fill="url(#paint1_linear_1330_365)"/>
<rect x="25.7079" width="16.1367" height="53.8772" rx="8.06834" transform="rotate(28.5 25.7079 0)" fill="url(#paint2_linear_1330_365)"/>
<defs>
<linearGradient id="paint0_linear_1330_365" x1="30.6359" y1="26.3168" x2="25.857" y2="41.1042" gradientUnits="userSpaceOnUse">
<stop stop-color="#C795EA"/>
<stop offset="0.494792" stop-color="#CC89E6"/>
<stop offset="1" stop-color="#D187E4"/>
</linearGradient>
<linearGradient id="paint1_linear_1330_365" x1="26.4407" y1="16.2913" x2="7.81001" y2="46.6915" gradientUnits="userSpaceOnUse">
<stop stop-color="#F5F58B"/>
<stop offset="0.638352" stop-color="#FDC88E"/>
<stop offset="1" stop-color="#E583CD"/>
</linearGradient>
<linearGradient id="paint2_linear_1330_365" x1="33.7762" y1="-5.33031e-07" x2="15.8776" y2="20.2624" gradientUnits="userSpaceOnUse">
<stop stop-color="#EDFB96"/>
<stop offset="0.494792" stop-color="#B5E0F1"/>
<stop offset="1" stop-color="#B4ABF2"/>
</linearGradient>
</defs>
</svg>
